<?xml version="1.0" encoding="UTF-8" standalone="no"?>
<svg width="45px" height="32px" viewBox="0 0 45 32" version="1.1" xmlns="http://www.w3.org/2000/svg" xmlns:xlink="http://www.w3.org/1999/xlink" xmlns:sketch="http://www.bohemiancoding.com/sketch/ns">
    <!-- Generator: Sketch Beta 3.4.2 (15820) - http://www.bohemiancoding.com/sketch -->
    <title>m logo white</title>
    <desc>Created with Sketch Beta.</desc>
    <defs></defs>
    <g id="Page-1" stroke="none" stroke-width="1" fill="none" fill-rule="evenodd" sketch:type="MSPage">
        <g id="Theme-Development-&gt;-Theme-Install-&gt;-Run-Npm-Install-Copy" sketch:type="MSArtboardGroup" transform="translate(-20.000000, -16.000000)" fill="#FFFFFF">
            <path d="M55.5805971,16.1292993 L21.3726285,16.1292993 C20.8910495,16.1292993 20.5,16.5106616 20.5,16.9804377 L20.5,46.9492903 C20.5,47.4203117 20.8910495,47.8004288 21.3726285,47.8004288 L27.5304921,47.8004288 C28.0123821,47.8004288 28.4031206,47.4203117 28.4031206,46.9492903 L28.4031206,24.3623671 L38.3439297,24.3623671 L38.3439297,46.9492903 C38.3439297,47.4203117 38.7349793,47.8004288 39.2165582,47.8004288 L45.2842036,47.8004288 C45.7664047,47.8004288 46.156832,47.4203117 46.156832,46.9492903 L46.156832,24.3623671 L54.1940356,24.3623671 C54.6407716,24.3623671 56.0979522,24.5058839 56.0979522,26.4992414 L56.0979522,46.9492903 C56.0979522,47.4203117 56.4880685,47.8004288 56.9705807,47.8004288 L63.3070143,47.8004288 C63.7892154,47.8004288 64.1796428,47.4203117 64.1796428,46.9492903 L64.1796428,25.2166187 C64.1796428,21.8419513 62.3687443,16.1292993 55.5805971,16.1292993 L55.5805971,16.1292993 Z" id="m-logo-white" sketch:type="MSShapeGroup"></path>
        </g>
    </g>
</svg>